# xmcd
#
# Track frame offsets:
#	150
#	9969
#	21936
#	34291
#	46373
#	57734
#	68286
#	80055
#	90717
#	100717
#	111806
#	124122
#	134993
#	147251
#	157285
#	168796
#	181998
#
# Disc length: 2574 seconds
#
# Revision: 0
# Processed by: cddbd v1.5.2PL0 Copyright (c) Steve Scherf et al.
# Submitted via: EZCDAudioConverter 1.2.3.1
#
DISCID=ec0a0c11
DTITLE=George Jones - The Complete '60s Duets
DYEAR=2005
DGENRE=Country
TTITLE0=I've Got Five Dollars and It's Saturday Night
TTITLE1=Wreck on the Highway
TTITLE2=Sweeter Than the Flowers
TTITLE3=One Has My Name
TTITLE4=I'm a Fool to Care
TTITLE5=Don't Rob Another Man's Castle
TTITLE6=My Shoes Keep Walking Back to You
TTITLE7=I've Got a New Heartache
TTITLE8=Big Job
TTITLE9=That's All It Took
TTITLE10=Mockin' Bird Hill
TTITLE11=As Long as I Live
TTITLE12=Y'All Come
TTITLE13=Someday You'll Want Me to Want You
TTITLE14=Louisiana Man
TTITLE15=Your Old Standby
TTITLE16=Why Baby Why
EXTD=
EXTT0=
EXTT1=
EXTT2=
EXTT3=
EXTT4=
EXTT5=
EXTT6=
EXTT7=
EXTT8=
EXTT9=
EXTT10=
EXTT11=
EXTT12=
EXTT13=
EXTT14=
EXTT15=
EXTT16=
PLAYORDER=
